<svg xmlns="http://www.w3.org/2000/svg" viewBox="0 0 120 140">
  <defs>
    <!-- Low-poly gradient shades -->
    <linearGradient id="bodyLight" x1="0%" y1="0%" x2="100%" y2="100%">
      <stop offset="0%" style="stop-color:#F4967A"/>
      <stop offset="100%" style="stop-color:#E8734A"/>
    </linearGradient>
    <linearGradient id="bodyDark" x1="0%" y1="0%" x2="100%" y2="100%">
      <stop offset="0%" style="stop-color:#E8734A"/>
      <stop offset="100%" style="stop-color:#C95A35"/>
    </linearGradient>
    <linearGradient id="bodyShadow" x1="0%" y1="0%" x2="100%" y2="100%">
      <stop offset="0%" style="stop-color:#C95A35"/>
      <stop offset="100%" style="stop-color:#A84828"/>
    </linearGradient>
  </defs>
  
  <!-- LEFT CLAW -->
  <polygon points="8,35 20,20 32,28 28,42 15,48" fill="url(#bodyLight)"/>
  <polygon points="20,20 35,15 38,25 32,28" fill="url(#bodyDark)"/>
  <polygon points="32,28 38,25 42,35 28,42" fill="url(#bodyShadow)"/>
  <polygon points="15,48 28,42 35,55 25,58" fill="url(#bodyDark)"/>
  
  <!-- RIGHT CLAW -->
  <polygon points="112,35 100,20 88,28 92,42 105,48" fill="url(#bodyLight)"/>
  <polygon points="100,20 85,15 82,25 88,28" fill="url(#bodyDark)"/>
  <polygon points="88,28 82,25 78,35 92,42" fill="url(#bodyShadow)"/>
  <polygon points="105,48 92,42 85,55 95,58" fill="url(#bodyDark)"/>
  
  <!-- CLAW ARMS -->
  <polygon points="25,58 35,55 42,62 38,70 30,68" fill="url(#bodyDark)"/>
  <polygon points="95,58 85,55 78,62 82,70 90,68" fill="url(#bodyDark)"/>
  
  <!-- HEAD - Top facets -->
  <polygon points="60,25 45,35 50,45 60,42" fill="url(#bodyLight)"/>
  <polygon points="60,25 75,35 70,45 60,42" fill="url(#bodyDark)"/>
  <polygon points="45,35 40,50 50,45" fill="url(#bodyShadow)"/>
  <polygon points="75,35 80,50 70,45" fill="url(#bodyShadow)"/>
  
  <!-- HEAD - Middle -->
  <polygon points="50,45 40,50 42,60 55,55 60,42" fill="url(#bodyLight)"/>
  <polygon points="70,45 80,50 78,60 65,55 60,42" fill="url(#bodyDark)"/>
  
  <!-- EYES -->
  <polygon points="48,42 52,40 54,46 50,48" fill="#1a1a1a"/>
  <polygon points="72,42 68,40 66,46 70,48" fill="#1a1a1a"/>
  <polygon points="49,43 51,42 52,45 50,46" fill="#ffffff"/>
  <polygon points="71,43 69,42 68,45 70,46" fill="#ffffff"/>
  
  <!-- ANTENNAE -->
  <polygon points="42,38 35,25 38,24 44,36" fill="url(#bodyDark)"/>
  <polygon points="78,38 85,25 82,24 76,36" fill="url(#bodyDark)"/>
  
  <!-- BODY - Segments -->
  <polygon points="42,60 55,55 65,55 78,60 75,75 60,72 45,75" fill="url(#bodyLight)"/>
  <polygon points="45,75 60,72 75,75 72,88 60,85 48,88" fill="url(#bodyDark)"/>
  <polygon points="48,88 60,85 72,88 70,100 60,98 50,100" fill="url(#bodyLight)"/>
  <polygon points="50,100 60,98 70,100 68,112 60,110 52,112" fill="url(#bodyDark)"/>
  
  <!-- LEGS - Left side -->
  <polygon points="38,70 30,68 22,78 28,82 38,75" fill="url(#bodyDark)"/>
  <polygon points="40,78 32,82 25,92 32,95 42,85" fill="url(#bodyShadow)"/>
  <polygon points="43,88 35,95 30,105 38,107 46,95" fill="url(#bodyDark)"/>
  
  <!-- LEGS - Right side -->
  <polygon points="82,70 90,68 98,78 92,82 82,75" fill="url(#bodyDark)"/>
  <polygon points="80,78 88,82 95,92 88,95 78,85" fill="url(#bodyShadow)"/>
  <polygon points="77,88 85,95 90,105 82,107 74,95" fill="url(#bodyDark)"/>
  
  <!-- TAIL -->
  <polygon points="52,112 60,110 68,112 65,122 60,120 55,122" fill="url(#bodyShadow)"/>
  <polygon points="55,122 60,120 65,122 62,130 60,128 58,130" fill="url(#bodyDark)"/>
  
  <!-- TAIL FINS -->
  <polygon points="50,125 55,122 52,135 45,138" fill="url(#bodyLight)"/>
  <polygon points="60,128 58,130 60,140 62,130" fill="url(#bodyDark)"/>
  <polygon points="70,125 65,122 68,135 75,138" fill="url(#bodyLight)"/>
</svg>
